G04 #@! TF.FileFunction,Copper,L2,Bot,Signal*
%FSLAX46Y46*%
G04 Gerber Fmt 4.6, Leading zero omitted, Abs format (unit mm)*
G04 Created by KiCad (PCBNEW 4.0.0-stable) date Wednesday, December 30, 2015 'PMt' 09:04:51 PM*
%MOMM*%
G01*
G04 APERTURE LIST*
%ADD10C,0.100000*%
%ADD11R,2.000000X1.900000*%
%ADD12C,1.900000*%
%ADD13R,1.727200X2.032000*%
%ADD14O,1.727200X2.032000*%
%ADD15R,2.235200X2.235200*%
%ADD16C,1.998980*%
%ADD17C,0.254000*%
G04 APERTURE END LIST*
D10*
D11*
X138430000Y-97790000D03*
D12*
X138430000Y-95250000D03*
D11*
X144780000Y-97790000D03*
D12*
X144780000Y-95250000D03*
D11*
X151130000Y-97790000D03*
D12*
X151130000Y-95250000D03*
D11*
X157480000Y-97790000D03*
D12*
X157480000Y-95250000D03*
D13*
X143510000Y-90170000D03*
D14*
X146050000Y-90170000D03*
X148590000Y-90170000D03*
X151130000Y-90170000D03*
D15*
X151130000Y-101600000D03*
D16*
X138430000Y-102870000D03*
X138430000Y-113030000D03*
X142240000Y-102870000D03*
X142240000Y-113030000D03*
X146050000Y-102870000D03*
X146050000Y-113030000D03*
X157480000Y-102870000D03*
X157480000Y-113030000D03*
D17*
G36*
X141998960Y-89154000D02*
X141998960Y-91186000D01*
X142043238Y-91421317D01*
X142182310Y-91637441D01*
X142394510Y-91782431D01*
X142646400Y-91833440D01*
X144373600Y-91833440D01*
X144608917Y-91789162D01*
X144825041Y-91650090D01*
X144970031Y-91437890D01*
X144978400Y-91396561D01*
X144990330Y-91414415D01*
X145476511Y-91739271D01*
X146050000Y-91853345D01*
X146623489Y-91739271D01*
X147109670Y-91414415D01*
X147320000Y-91099634D01*
X147530330Y-91414415D01*
X148016511Y-91739271D01*
X148590000Y-91853345D01*
X149163489Y-91739271D01*
X149649670Y-91414415D01*
X149860000Y-91099634D01*
X150070330Y-91414415D01*
X150556511Y-91739271D01*
X151130000Y-91853345D01*
X151703489Y-91739271D01*
X152189670Y-91414415D01*
X152514526Y-90928234D01*
X152628600Y-90354745D01*
X152628600Y-89985255D01*
X152514526Y-89411766D01*
X152257433Y-89027000D01*
X159893000Y-89027000D01*
X159893000Y-114173000D01*
X158690284Y-114173000D01*
X158746446Y-114116838D01*
X158632164Y-114002556D01*
X158898965Y-113903958D01*
X159125401Y-113294418D01*
X159101341Y-112644623D01*
X158898965Y-112156042D01*
X158632163Y-112057443D01*
X157659605Y-113030000D01*
X157673748Y-113044142D01*
X157494142Y-113223748D01*
X157480000Y-113209605D01*
X157465858Y-113223748D01*
X157286252Y-113044142D01*
X157300395Y-113030000D01*
X156327837Y-112057443D01*
X156061035Y-112156042D01*
X155834599Y-112765582D01*
X155858659Y-113415377D01*
X156061035Y-113903958D01*
X156327836Y-114002556D01*
X156213554Y-114116838D01*
X156269716Y-114173000D01*
X147260284Y-114173000D01*
X147316446Y-114116838D01*
X147202164Y-114002556D01*
X147468965Y-113903958D01*
X147695401Y-113294418D01*
X147671341Y-112644623D01*
X147468965Y-112156042D01*
X147202163Y-112057443D01*
X146229605Y-113030000D01*
X146243748Y-113044142D01*
X146064142Y-113223748D01*
X146050000Y-113209605D01*
X146035858Y-113223748D01*
X145856252Y-113044142D01*
X145870395Y-113030000D01*
X144897837Y-112057443D01*
X144631035Y-112156042D01*
X144404599Y-112765582D01*
X144428659Y-113415377D01*
X144631035Y-113903958D01*
X144897836Y-114002556D01*
X144783554Y-114116838D01*
X144839716Y-114173000D01*
X143450284Y-114173000D01*
X143506446Y-114116838D01*
X143392164Y-114002556D01*
X143658965Y-113903958D01*
X143885401Y-113294418D01*
X143861341Y-112644623D01*
X143658965Y-112156042D01*
X143392163Y-112057443D01*
X142419605Y-113030000D01*
X142433748Y-113044142D01*
X142254142Y-113223748D01*
X142240000Y-113209605D01*
X142225858Y-113223748D01*
X142046252Y-113044142D01*
X142060395Y-113030000D01*
X141087837Y-112057443D01*
X140821035Y-112156042D01*
X140594599Y-112765582D01*
X140618659Y-113415377D01*
X140821035Y-113903958D01*
X141087836Y-114002556D01*
X140973554Y-114116838D01*
X141029716Y-114173000D01*
X139640284Y-114173000D01*
X139696446Y-114116838D01*
X139582164Y-114002556D01*
X139848965Y-113903958D01*
X140075401Y-113294418D01*
X140051341Y-112644623D01*
X139848965Y-112156042D01*
X139582163Y-112057443D01*
X138609605Y-113030000D01*
X138623748Y-113044142D01*
X138444142Y-113223748D01*
X138430000Y-113209605D01*
X138415858Y-113223748D01*
X138236252Y-113044142D01*
X138250395Y-113030000D01*
X137277837Y-112057443D01*
X137011035Y-112156042D01*
X136784599Y-112765582D01*
X136808659Y-113415377D01*
X137011035Y-113903958D01*
X137277836Y-114002556D01*
X137163554Y-114116838D01*
X137219716Y-114173000D01*
X136017000Y-114173000D01*
X136017000Y-111877837D01*
X137457443Y-111877837D01*
X138430000Y-112850395D01*
X139402557Y-111877837D01*
X141267443Y-111877837D01*
X142240000Y-112850395D01*
X143212557Y-111877837D01*
X145077443Y-111877837D01*
X146050000Y-112850395D01*
X147022557Y-111877837D01*
X156507443Y-111877837D01*
X157480000Y-112850395D01*
X158452557Y-111877837D01*
X158353958Y-111611035D01*
X157744418Y-111384599D01*
X157094623Y-111408659D01*
X156606042Y-111611035D01*
X156507443Y-111877837D01*
X147022557Y-111877837D01*
X146923958Y-111611035D01*
X146314418Y-111384599D01*
X145664623Y-111408659D01*
X145176042Y-111611035D01*
X145077443Y-111877837D01*
X143212557Y-111877837D01*
X143113958Y-111611035D01*
X142504418Y-111384599D01*
X141854623Y-111408659D01*
X141366042Y-111611035D01*
X141267443Y-111877837D01*
X139402557Y-111877837D01*
X139303958Y-111611035D01*
X138694418Y-111384599D01*
X138044623Y-111408659D01*
X137556042Y-111611035D01*
X137457443Y-111877837D01*
X136017000Y-111877837D01*
X136017000Y-103193694D01*
X136795226Y-103193694D01*
X137043538Y-103794655D01*
X137502927Y-104254846D01*
X138103453Y-104504206D01*
X138753694Y-104504774D01*
X139354655Y-104256462D01*
X139814846Y-103797073D01*
X140064206Y-103196547D01*
X140064208Y-103193694D01*
X140605226Y-103193694D01*
X140853538Y-103794655D01*
X141312927Y-104254846D01*
X141913453Y-104504206D01*
X142563694Y-104504774D01*
X143164655Y-104256462D01*
X143624846Y-103797073D01*
X143874206Y-103196547D01*
X143874208Y-103193694D01*
X144415226Y-103193694D01*
X144663538Y-103794655D01*
X145122927Y-104254846D01*
X145723453Y-104504206D01*
X146373694Y-104504774D01*
X146974655Y-104256462D01*
X147434846Y-103797073D01*
X147684206Y-103196547D01*
X147684774Y-102546306D01*
X147436462Y-101945345D01*
X147376971Y-101885750D01*
X149377400Y-101885750D01*
X149377400Y-102843910D01*
X149474073Y-103077299D01*
X149652702Y-103255927D01*
X149886091Y-103352600D01*
X150844250Y-103352600D01*
X151003000Y-103193850D01*
X151003000Y-101727000D01*
X151257000Y-101727000D01*
X151257000Y-103193850D01*
X151415750Y-103352600D01*
X152373909Y-103352600D01*
X152607298Y-103255927D01*
X152669531Y-103193694D01*
X155845226Y-103193694D01*
X156093538Y-103794655D01*
X156552927Y-104254846D01*
X157153453Y-104504206D01*
X157803694Y-104504774D01*
X158404655Y-104256462D01*
X158864846Y-103797073D01*
X159114206Y-103196547D01*
X159114774Y-102546306D01*
X158866462Y-101945345D01*
X158407073Y-101485154D01*
X157806547Y-101235794D01*
X157156306Y-101235226D01*
X156555345Y-101483538D01*
X156095154Y-101942927D01*
X155845794Y-102543453D01*
X155845226Y-103193694D01*
X152669531Y-103193694D01*
X152785927Y-103077299D01*
X152882600Y-102843910D01*
X152882600Y-101885750D01*
X152723850Y-101727000D01*
X151257000Y-101727000D01*
X151003000Y-101727000D01*
X149536150Y-101727000D01*
X149377400Y-101885750D01*
X147376971Y-101885750D01*
X146977073Y-101485154D01*
X146376547Y-101235794D01*
X145726306Y-101235226D01*
X145125345Y-101483538D01*
X144665154Y-101942927D01*
X144415794Y-102543453D01*
X144415226Y-103193694D01*
X143874208Y-103193694D01*
X143874774Y-102546306D01*
X143626462Y-101945345D01*
X143167073Y-101485154D01*
X142566547Y-101235794D01*
X141916306Y-101235226D01*
X141315345Y-101483538D01*
X140855154Y-101942927D01*
X140605794Y-102543453D01*
X140605226Y-103193694D01*
X140064208Y-103193694D01*
X140064774Y-102546306D01*
X139816462Y-101945345D01*
X139357073Y-101485154D01*
X138756547Y-101235794D01*
X138106306Y-101235226D01*
X137505345Y-101483538D01*
X137045154Y-101942927D01*
X136795794Y-102543453D01*
X136795226Y-103193694D01*
X136017000Y-103193694D01*
X136017000Y-100356090D01*
X149377400Y-100356090D01*
X149377400Y-101314250D01*
X149536150Y-101473000D01*
X151003000Y-101473000D01*
X151003000Y-100006150D01*
X151257000Y-100006150D01*
X151257000Y-101473000D01*
X152723850Y-101473000D01*
X152882600Y-101314250D01*
X152882600Y-100356090D01*
X152785927Y-100122701D01*
X152607298Y-99944073D01*
X152373909Y-99847400D01*
X151415750Y-99847400D01*
X151257000Y-100006150D01*
X151003000Y-100006150D01*
X150844250Y-99847400D01*
X149886091Y-99847400D01*
X149652702Y-99944073D01*
X149474073Y-100122701D01*
X149377400Y-100356090D01*
X136017000Y-100356090D01*
X136017000Y-96840000D01*
X136782560Y-96840000D01*
X136782560Y-98740000D01*
X136826838Y-98975317D01*
X136965910Y-99191441D01*
X137178110Y-99336431D01*
X137430000Y-99387440D01*
X139430000Y-99387440D01*
X139665317Y-99343162D01*
X139881441Y-99204090D01*
X140026431Y-98991890D01*
X140077440Y-98740000D01*
X140077440Y-96840000D01*
X143132560Y-96840000D01*
X143132560Y-98740000D01*
X143176838Y-98975317D01*
X143315910Y-99191441D01*
X143528110Y-99336431D01*
X143780000Y-99387440D01*
X145780000Y-99387440D01*
X146015317Y-99343162D01*
X146231441Y-99204090D01*
X146376431Y-98991890D01*
X146427440Y-98740000D01*
X146427440Y-96840000D01*
X149482560Y-96840000D01*
X149482560Y-98740000D01*
X149526838Y-98975317D01*
X149665910Y-99191441D01*
X149878110Y-99336431D01*
X150130000Y-99387440D01*
X152130000Y-99387440D01*
X152365317Y-99343162D01*
X152581441Y-99204090D01*
X152726431Y-98991890D01*
X152777440Y-98740000D01*
X152777440Y-96840000D01*
X155832560Y-96840000D01*
X155832560Y-98740000D01*
X155876838Y-98975317D01*
X156015910Y-99191441D01*
X156228110Y-99336431D01*
X156480000Y-99387440D01*
X158480000Y-99387440D01*
X158715317Y-99343162D01*
X158931441Y-99204090D01*
X159076431Y-98991890D01*
X159127440Y-98740000D01*
X159127440Y-96840000D01*
X159083162Y-96604683D01*
X158944090Y-96388559D01*
X158731890Y-96243569D01*
X158728808Y-96242945D01*
X158822914Y-96149003D01*
X159064724Y-95566659D01*
X159065275Y-94936107D01*
X158824481Y-94353343D01*
X158379003Y-93907086D01*
X157796659Y-93665276D01*
X157166107Y-93664725D01*
X156583343Y-93905519D01*
X156137086Y-94350997D01*
X155895276Y-94933341D01*
X155894725Y-95563893D01*
X156135519Y-96146657D01*
X156233029Y-96244337D01*
X156028559Y-96375910D01*
X155883569Y-96588110D01*
X155832560Y-96840000D01*
X152777440Y-96840000D01*
X152733162Y-96604683D01*
X152594090Y-96388559D01*
X152381890Y-96243569D01*
X152378808Y-96242945D01*
X152472914Y-96149003D01*
X152714724Y-95566659D01*
X152715275Y-94936107D01*
X152474481Y-94353343D01*
X152029003Y-93907086D01*
X151446659Y-93665276D01*
X150816107Y-93664725D01*
X150233343Y-93905519D01*
X149787086Y-94350997D01*
X149545276Y-94933341D01*
X149544725Y-95563893D01*
X149785519Y-96146657D01*
X149883029Y-96244337D01*
X149678559Y-96375910D01*
X149533569Y-96588110D01*
X149482560Y-96840000D01*
X146427440Y-96840000D01*
X146383162Y-96604683D01*
X146244090Y-96388559D01*
X146031890Y-96243569D01*
X146028808Y-96242945D01*
X146122914Y-96149003D01*
X146364724Y-95566659D01*
X146365275Y-94936107D01*
X146124481Y-94353343D01*
X145679003Y-93907086D01*
X145096659Y-93665276D01*
X144466107Y-93664725D01*
X143883343Y-93905519D01*
X143437086Y-94350997D01*
X143195276Y-94933341D01*
X143194725Y-95563893D01*
X143435519Y-96146657D01*
X143533029Y-96244337D01*
X143328559Y-96375910D01*
X143183569Y-96588110D01*
X143132560Y-96840000D01*
X140077440Y-96840000D01*
X140033162Y-96604683D01*
X139894090Y-96388559D01*
X139681890Y-96243569D01*
X139678808Y-96242945D01*
X139772914Y-96149003D01*
X140014724Y-95566659D01*
X140015275Y-94936107D01*
X139774481Y-94353343D01*
X139329003Y-93907086D01*
X138746659Y-93665276D01*
X138116107Y-93664725D01*
X137533343Y-93905519D01*
X137087086Y-94350997D01*
X136845276Y-94933341D01*
X136844725Y-95563893D01*
X137085519Y-96146657D01*
X137183029Y-96244337D01*
X136978559Y-96375910D01*
X136833569Y-96588110D01*
X136782560Y-96840000D01*
X136017000Y-96840000D01*
X136017000Y-89027000D01*
X142024678Y-89027000D01*
X141998960Y-89154000D01*
X141998960Y-89154000D01*
G37*
X141998960Y-89154000D02*
X141998960Y-91186000D01*
X142043238Y-91421317D01*
X142182310Y-91637441D01*
X142394510Y-91782431D01*
X142646400Y-91833440D01*
X144373600Y-91833440D01*
X144608917Y-91789162D01*
X144825041Y-91650090D01*
X144970031Y-91437890D01*
X144978400Y-91396561D01*
X144990330Y-91414415D01*
X145476511Y-91739271D01*
X146050000Y-91853345D01*
X146623489Y-91739271D01*
X147109670Y-91414415D01*
X147320000Y-91099634D01*
X147530330Y-91414415D01*
X148016511Y-91739271D01*
X148590000Y-91853345D01*
X149163489Y-91739271D01*
X149649670Y-91414415D01*
X149860000Y-91099634D01*
X150070330Y-91414415D01*
X150556511Y-91739271D01*
X151130000Y-91853345D01*
X151703489Y-91739271D01*
X152189670Y-91414415D01*
X152514526Y-90928234D01*
X152628600Y-90354745D01*
X152628600Y-89985255D01*
X152514526Y-89411766D01*
X152257433Y-89027000D01*
X159893000Y-89027000D01*
X159893000Y-114173000D01*
X158690284Y-114173000D01*
X158746446Y-114116838D01*
X158632164Y-114002556D01*
X158898965Y-113903958D01*
X159125401Y-113294418D01*
X159101341Y-112644623D01*
X158898965Y-112156042D01*
X158632163Y-112057443D01*
X157659605Y-113030000D01*
X157673748Y-113044142D01*
X157494142Y-113223748D01*
X157480000Y-113209605D01*
X157465858Y-113223748D01*
X157286252Y-113044142D01*
X157300395Y-113030000D01*
X156327837Y-112057443D01*
X156061035Y-112156042D01*
X155834599Y-112765582D01*
X155858659Y-113415377D01*
X156061035Y-113903958D01*
X156327836Y-114002556D01*
X156213554Y-114116838D01*
X156269716Y-114173000D01*
X147260284Y-114173000D01*
X147316446Y-114116838D01*
X147202164Y-114002556D01*
X147468965Y-113903958D01*
X147695401Y-113294418D01*
X147671341Y-112644623D01*
X147468965Y-112156042D01*
X147202163Y-112057443D01*
X146229605Y-113030000D01*
X146243748Y-113044142D01*
X146064142Y-113223748D01*
X146050000Y-113209605D01*
X146035858Y-113223748D01*
X145856252Y-113044142D01*
X145870395Y-113030000D01*
X144897837Y-112057443D01*
X144631035Y-112156042D01*
X144404599Y-112765582D01*
X144428659Y-113415377D01*
X144631035Y-113903958D01*
X144897836Y-114002556D01*
X144783554Y-114116838D01*
X144839716Y-114173000D01*
X143450284Y-114173000D01*
X143506446Y-114116838D01*
X143392164Y-114002556D01*
X143658965Y-113903958D01*
X143885401Y-113294418D01*
X143861341Y-112644623D01*
X143658965Y-112156042D01*
X143392163Y-112057443D01*
X142419605Y-113030000D01*
X142433748Y-113044142D01*
X142254142Y-113223748D01*
X142240000Y-113209605D01*
X142225858Y-113223748D01*
X142046252Y-113044142D01*
X142060395Y-113030000D01*
X141087837Y-112057443D01*
X140821035Y-112156042D01*
X140594599Y-112765582D01*
X140618659Y-113415377D01*
X140821035Y-113903958D01*
X141087836Y-114002556D01*
X140973554Y-114116838D01*
X141029716Y-114173000D01*
X139640284Y-114173000D01*
X139696446Y-114116838D01*
X139582164Y-114002556D01*
X139848965Y-113903958D01*
X140075401Y-113294418D01*
X140051341Y-112644623D01*
X139848965Y-112156042D01*
X139582163Y-112057443D01*
X138609605Y-113030000D01*
X138623748Y-113044142D01*
X138444142Y-113223748D01*
X138430000Y-113209605D01*
X138415858Y-113223748D01*
X138236252Y-113044142D01*
X138250395Y-113030000D01*
X137277837Y-112057443D01*
X137011035Y-112156042D01*
X136784599Y-112765582D01*
X136808659Y-113415377D01*
X137011035Y-113903958D01*
X137277836Y-114002556D01*
X137163554Y-114116838D01*
X137219716Y-114173000D01*
X136017000Y-114173000D01*
X136017000Y-111877837D01*
X137457443Y-111877837D01*
X138430000Y-112850395D01*
X139402557Y-111877837D01*
X141267443Y-111877837D01*
X142240000Y-112850395D01*
X143212557Y-111877837D01*
X145077443Y-111877837D01*
X146050000Y-112850395D01*
X147022557Y-111877837D01*
X156507443Y-111877837D01*
X157480000Y-112850395D01*
X158452557Y-111877837D01*
X158353958Y-111611035D01*
X157744418Y-111384599D01*
X157094623Y-111408659D01*
X156606042Y-111611035D01*
X156507443Y-111877837D01*
X147022557Y-111877837D01*
X146923958Y-111611035D01*
X146314418Y-111384599D01*
X145664623Y-111408659D01*
X145176042Y-111611035D01*
X145077443Y-111877837D01*
X143212557Y-111877837D01*
X143113958Y-111611035D01*
X142504418Y-111384599D01*
X141854623Y-111408659D01*
X141366042Y-111611035D01*
X141267443Y-111877837D01*
X139402557Y-111877837D01*
X139303958Y-111611035D01*
X138694418Y-111384599D01*
X138044623Y-111408659D01*
X137556042Y-111611035D01*
X137457443Y-111877837D01*
X136017000Y-111877837D01*
X136017000Y-103193694D01*
X136795226Y-103193694D01*
X137043538Y-103794655D01*
X137502927Y-104254846D01*
X138103453Y-104504206D01*
X138753694Y-104504774D01*
X139354655Y-104256462D01*
X139814846Y-103797073D01*
X140064206Y-103196547D01*
X140064208Y-103193694D01*
X140605226Y-103193694D01*
X140853538Y-103794655D01*
X141312927Y-104254846D01*
X141913453Y-104504206D01*
X142563694Y-104504774D01*
X143164655Y-104256462D01*
X143624846Y-103797073D01*
X143874206Y-103196547D01*
X143874208Y-103193694D01*
X144415226Y-103193694D01*
X144663538Y-103794655D01*
X145122927Y-104254846D01*
X145723453Y-104504206D01*
X146373694Y-104504774D01*
X146974655Y-104256462D01*
X147434846Y-103797073D01*
X147684206Y-103196547D01*
X147684774Y-102546306D01*
X147436462Y-101945345D01*
X147376971Y-101885750D01*
X149377400Y-101885750D01*
X149377400Y-102843910D01*
X149474073Y-103077299D01*
X149652702Y-103255927D01*
X149886091Y-103352600D01*
X150844250Y-103352600D01*
X151003000Y-103193850D01*
X151003000Y-101727000D01*
X151257000Y-101727000D01*
X151257000Y-103193850D01*
X151415750Y-103352600D01*
X152373909Y-103352600D01*
X152607298Y-103255927D01*
X152669531Y-103193694D01*
X155845226Y-103193694D01*
X156093538Y-103794655D01*
X156552927Y-104254846D01*
X157153453Y-104504206D01*
X157803694Y-104504774D01*
X158404655Y-104256462D01*
X158864846Y-103797073D01*
X159114206Y-103196547D01*
X159114774Y-102546306D01*
X158866462Y-101945345D01*
X158407073Y-101485154D01*
X157806547Y-101235794D01*
X157156306Y-101235226D01*
X156555345Y-101483538D01*
X156095154Y-101942927D01*
X155845794Y-102543453D01*
X155845226Y-103193694D01*
X152669531Y-103193694D01*
X152785927Y-103077299D01*
X152882600Y-102843910D01*
X152882600Y-101885750D01*
X152723850Y-101727000D01*
X151257000Y-101727000D01*
X151003000Y-101727000D01*
X149536150Y-101727000D01*
X149377400Y-101885750D01*
X147376971Y-101885750D01*
X146977073Y-101485154D01*
X146376547Y-101235794D01*
X145726306Y-101235226D01*
X145125345Y-101483538D01*
X144665154Y-101942927D01*
X144415794Y-102543453D01*
X144415226Y-103193694D01*
X143874208Y-103193694D01*
X143874774Y-102546306D01*
X143626462Y-101945345D01*
X143167073Y-101485154D01*
X142566547Y-101235794D01*
X141916306Y-101235226D01*
X141315345Y-101483538D01*
X140855154Y-101942927D01*
X140605794Y-102543453D01*
X140605226Y-103193694D01*
X140064208Y-103193694D01*
X140064774Y-102546306D01*
X139816462Y-101945345D01*
X139357073Y-101485154D01*
X138756547Y-101235794D01*
X138106306Y-101235226D01*
X137505345Y-101483538D01*
X137045154Y-101942927D01*
X136795794Y-102543453D01*
X136795226Y-103193694D01*
X136017000Y-103193694D01*
X136017000Y-100356090D01*
X149377400Y-100356090D01*
X149377400Y-101314250D01*
X149536150Y-101473000D01*
X151003000Y-101473000D01*
X151003000Y-100006150D01*
X151257000Y-100006150D01*
X151257000Y-101473000D01*
X152723850Y-101473000D01*
X152882600Y-101314250D01*
X152882600Y-100356090D01*
X152785927Y-100122701D01*
X152607298Y-99944073D01*
X152373909Y-99847400D01*
X151415750Y-99847400D01*
X151257000Y-100006150D01*
X151003000Y-100006150D01*
X150844250Y-99847400D01*
X149886091Y-99847400D01*
X149652702Y-99944073D01*
X149474073Y-100122701D01*
X149377400Y-100356090D01*
X136017000Y-100356090D01*
X136017000Y-96840000D01*
X136782560Y-96840000D01*
X136782560Y-98740000D01*
X136826838Y-98975317D01*
X136965910Y-99191441D01*
X137178110Y-99336431D01*
X137430000Y-99387440D01*
X139430000Y-99387440D01*
X139665317Y-99343162D01*
X139881441Y-99204090D01*
X140026431Y-98991890D01*
X140077440Y-98740000D01*
X140077440Y-96840000D01*
X143132560Y-96840000D01*
X143132560Y-98740000D01*
X143176838Y-98975317D01*
X143315910Y-99191441D01*
X143528110Y-99336431D01*
X143780000Y-99387440D01*
X145780000Y-99387440D01*
X146015317Y-99343162D01*
X146231441Y-99204090D01*
X146376431Y-98991890D01*
X146427440Y-98740000D01*
X146427440Y-96840000D01*
X149482560Y-96840000D01*
X149482560Y-98740000D01*
X149526838Y-98975317D01*
X149665910Y-99191441D01*
X149878110Y-99336431D01*
X150130000Y-99387440D01*
X152130000Y-99387440D01*
X152365317Y-99343162D01*
X152581441Y-99204090D01*
X152726431Y-98991890D01*
X152777440Y-98740000D01*
X152777440Y-96840000D01*
X155832560Y-96840000D01*
X155832560Y-98740000D01*
X155876838Y-98975317D01*
X156015910Y-99191441D01*
X156228110Y-99336431D01*
X156480000Y-99387440D01*
X158480000Y-99387440D01*
X158715317Y-99343162D01*
X158931441Y-99204090D01*
X159076431Y-98991890D01*
X159127440Y-98740000D01*
X159127440Y-96840000D01*
X159083162Y-96604683D01*
X158944090Y-96388559D01*
X158731890Y-96243569D01*
X158728808Y-96242945D01*
X158822914Y-96149003D01*
X159064724Y-95566659D01*
X159065275Y-94936107D01*
X158824481Y-94353343D01*
X158379003Y-93907086D01*
X157796659Y-93665276D01*
X157166107Y-93664725D01*
X156583343Y-93905519D01*
X156137086Y-94350997D01*
X155895276Y-94933341D01*
X155894725Y-95563893D01*
X156135519Y-96146657D01*
X156233029Y-96244337D01*
X156028559Y-96375910D01*
X155883569Y-96588110D01*
X155832560Y-96840000D01*
X152777440Y-96840000D01*
X152733162Y-96604683D01*
X152594090Y-96388559D01*
X152381890Y-96243569D01*
X152378808Y-96242945D01*
X152472914Y-96149003D01*
X152714724Y-95566659D01*
X152715275Y-94936107D01*
X152474481Y-94353343D01*
X152029003Y-93907086D01*
X151446659Y-93665276D01*
X150816107Y-93664725D01*
X150233343Y-93905519D01*
X149787086Y-94350997D01*
X149545276Y-94933341D01*
X149544725Y-95563893D01*
X149785519Y-96146657D01*
X149883029Y-96244337D01*
X149678559Y-96375910D01*
X149533569Y-96588110D01*
X149482560Y-96840000D01*
X146427440Y-96840000D01*
X146383162Y-96604683D01*
X146244090Y-96388559D01*
X146031890Y-96243569D01*
X146028808Y-96242945D01*
X146122914Y-96149003D01*
X146364724Y-95566659D01*
X146365275Y-94936107D01*
X146124481Y-94353343D01*
X145679003Y-93907086D01*
X145096659Y-93665276D01*
X144466107Y-93664725D01*
X143883343Y-93905519D01*
X143437086Y-94350997D01*
X143195276Y-94933341D01*
X143194725Y-95563893D01*
X143435519Y-96146657D01*
X143533029Y-96244337D01*
X143328559Y-96375910D01*
X143183569Y-96588110D01*
X143132560Y-96840000D01*
X140077440Y-96840000D01*
X140033162Y-96604683D01*
X139894090Y-96388559D01*
X139681890Y-96243569D01*
X139678808Y-96242945D01*
X139772914Y-96149003D01*
X140014724Y-95566659D01*
X140015275Y-94936107D01*
X139774481Y-94353343D01*
X139329003Y-93907086D01*
X138746659Y-93665276D01*
X138116107Y-93664725D01*
X137533343Y-93905519D01*
X137087086Y-94350997D01*
X136845276Y-94933341D01*
X136844725Y-95563893D01*
X137085519Y-96146657D01*
X137183029Y-96244337D01*
X136978559Y-96375910D01*
X136833569Y-96588110D01*
X136782560Y-96840000D01*
X136017000Y-96840000D01*
X136017000Y-89027000D01*
X142024678Y-89027000D01*
X141998960Y-89154000D01*
M02*
