G04 #@! TF.FileFunction,Copper,L1,Top,Signal*
%FSLAX46Y46*%
G04 Gerber Fmt 4.6, Leading zero omitted, Abs format (unit mm)*
G04 Created by KiCad (PCBNEW 4.0.0-stable) date Wednesday, December 30, 2015 'PMt' 09:04:51 PM*
%MOMM*%
G01*
G04 APERTURE LIST*
%ADD10C,0.100000*%
%ADD11R,2.000000X1.900000*%
%ADD12C,1.900000*%
%ADD13R,1.727200X2.032000*%
%ADD14O,1.727200X2.032000*%
%ADD15R,2.235200X2.235200*%
%ADD16C,1.998980*%
%ADD17C,0.250000*%
G04 APERTURE END LIST*
D10*
D11*
X138430000Y-97790000D03*
D12*
X138430000Y-95250000D03*
D11*
X144780000Y-97790000D03*
D12*
X144780000Y-95250000D03*
D11*
X151130000Y-97790000D03*
D12*
X151130000Y-95250000D03*
D11*
X157480000Y-97790000D03*
D12*
X157480000Y-95250000D03*
D13*
X143510000Y-90170000D03*
D14*
X146050000Y-90170000D03*
X148590000Y-90170000D03*
X151130000Y-90170000D03*
D15*
X151130000Y-101600000D03*
D16*
X138430000Y-102870000D03*
X138430000Y-113030000D03*
X142240000Y-102870000D03*
X142240000Y-113030000D03*
X146050000Y-102870000D03*
X146050000Y-113030000D03*
X157480000Y-102870000D03*
X157480000Y-113030000D03*
D17*
X138430000Y-102870000D02*
X138430000Y-97790000D01*
X143510000Y-90170000D02*
X138430000Y-95250000D01*
X142240000Y-102870000D02*
X142240000Y-100330000D01*
X142240000Y-100330000D02*
X144780000Y-97790000D01*
X146050000Y-90170000D02*
X146050000Y-93980000D01*
X146050000Y-93980000D02*
X144780000Y-95250000D01*
X146050000Y-102870000D02*
X146050000Y-101600000D01*
X149860000Y-97790000D02*
X151130000Y-97790000D01*
X146050000Y-101600000D02*
X149860000Y-97790000D01*
X148590000Y-90170000D02*
X148590000Y-92710000D01*
X148590000Y-92710000D02*
X151130000Y-95250000D01*
X157480000Y-102870000D02*
X157480000Y-97790000D01*
X151130000Y-90170000D02*
X152400000Y-90170000D01*
X152400000Y-90170000D02*
X157480000Y-95250000D01*
M02*
