M48
INCH,TZ
T1C0.039
T2C0.040
%
G90
G05
T1
X54500Y-37500
X54500Y-38500
X54500Y-40500
X54500Y-44500
X56000Y-40500
X56000Y-44500
X57000Y-37500
X57000Y-38500
X57500Y-40500
X57500Y-44500
X59500Y-37500
X59500Y-38500
X62000Y-37500
X62000Y-38500
X62000Y-40500
X62000Y-44500
T2
X56500Y-35500
X57500Y-35500
X58500Y-35500
X59500Y-35500
X59500Y-40000
T0
M30
