G04 #@! TF.FileFunction,Legend,Top*
%FSLAX46Y46*%
G04 Gerber Fmt 4.6, Leading zero omitted, Abs format (unit mm)*
G04 Created by KiCad (PCBNEW 4.0.0-stable) date Monday, January 25, 2016 'PMt' 02:12:06 PM*
%MOMM*%
G01*
G04 APERTURE LIST*
%ADD10C,0.100000*%
%ADD11C,0.300000*%
%ADD12C,0.150000*%
G04 APERTURE END LIST*
D10*
D11*
X142641429Y-100580000D02*
X143355715Y-100580000D01*
X142498572Y-101008571D02*
X142998572Y-99508571D01*
X143498572Y-101008571D01*
X143998572Y-101008571D02*
X143998572Y-99508571D01*
X144355715Y-99508571D01*
X144570000Y-99580000D01*
X144712858Y-99722857D01*
X144784286Y-99865714D01*
X144855715Y-100151429D01*
X144855715Y-100365714D01*
X144784286Y-100651429D01*
X144712858Y-100794286D01*
X144570000Y-100937143D01*
X144355715Y-101008571D01*
X143998572Y-101008571D01*
X149927143Y-100008571D02*
X150284286Y-101008571D01*
X150641428Y-100008571D01*
X151141428Y-99651429D02*
X151212857Y-99580000D01*
X151355714Y-99508571D01*
X151712857Y-99508571D01*
X151855714Y-99580000D01*
X151927143Y-99651429D01*
X151998571Y-99794286D01*
X151998571Y-99937143D01*
X151927143Y-100151429D01*
X151070000Y-101008571D01*
X151998571Y-101008571D01*
D12*
X144780000Y-91440000D02*
X152400000Y-91440000D01*
X144780000Y-88900000D02*
X152400000Y-88900000D01*
X141960000Y-88620000D02*
X143510000Y-88620000D01*
X152400000Y-91440000D02*
X152400000Y-88900000D01*
X144780000Y-88900000D02*
X144780000Y-91440000D01*
X143510000Y-91720000D02*
X141960000Y-91720000D01*
X141960000Y-91720000D02*
X141960000Y-88620000D01*
X148870000Y-98780000D02*
X148870000Y-100330000D01*
X145770000Y-100330000D02*
X145770000Y-98780000D01*
X145770000Y-98780000D02*
X148870000Y-98780000D01*
X146050000Y-101600000D02*
X148590000Y-101600000D01*
X145175000Y-105295000D02*
X145175000Y-104095000D01*
X146925000Y-104095000D02*
X146925000Y-105295000D01*
X147715000Y-105295000D02*
X147715000Y-104095000D01*
X149465000Y-104095000D02*
X149465000Y-105295000D01*
X150255000Y-105295000D02*
X150255000Y-104095000D01*
X152005000Y-104095000D02*
X152005000Y-105295000D01*
X142635000Y-105295000D02*
X142635000Y-104095000D01*
X144385000Y-104095000D02*
X144385000Y-105295000D01*
X144385000Y-94429020D02*
X144385000Y-95629020D01*
X142635000Y-95629020D02*
X142635000Y-94429020D01*
X146925000Y-94429020D02*
X146925000Y-95629020D01*
X145175000Y-95629020D02*
X145175000Y-94429020D01*
X149465000Y-94429020D02*
X149465000Y-95629020D01*
X147715000Y-95629020D02*
X147715000Y-94429020D01*
X152005000Y-94429020D02*
X152005000Y-95629020D01*
X150255000Y-95629020D02*
X150255000Y-94429020D01*
M02*
